<svg id="ae21189e-bb83-49b7-ad76-89dba108eff2" data-name="图层 1" xmlns="http://www.w3.org/2000/svg" xmlns:xlink="http://www.w3.org/1999/xlink" viewBox="0 0 666.05 779.84"><defs><style>.e964a3d2-a91c-420b-ac0e-e0e10eabf9ff,.ffa23624-b2cb-4dc9-836e-bfd337cf5ce8{fill:none;}.b7dbe741-37ab-45c3-bfa7-107b2dd1f15e{clip-path:url(#bc53e30b-9ead-4d55-a130-61cba77fadff);}.e5ba5773-0667-4dd2-844c-f2cb5a36df88{fill:#d81e06;}.ffa23624-b2cb-4dc9-836e-bfd337cf5ce8{stroke:#d81e06;stroke-linecap:round;stroke-miterlimit:10;stroke-width:40px;}</style><clipPath id="bc53e30b-9ead-4d55-a130-61cba77fadff" transform="translate(-348.88 6.08)"><rect class="e964a3d2-a91c-420b-ac0e-e0e10eabf9ff" x="349" y="-6" width="666.88" height="780.72"/></clipPath></defs><title>dengpao</title><g class="b7dbe741-37ab-45c3-bfa7-107b2dd1f15e"><path class="e5ba5773-0667-4dd2-844c-f2cb5a36df88" d="M502.44,178.88A241.52,241.52,0,0,1,533,146.67L477.82,91.46a22.21,22.21,0,0,0-31.42,31.39ZM681.91,90.12h.64a210.22,210.22,0,0,1,21.57,1.19V16.12a22.2,22.2,0,1,0-44.39,0V91.29c7.08-.71,14.28-1.17,21.57-1.17Zm179.52,88.74,56-56A22.21,22.21,0,1,0,886,91.46l-55.21,55.21a245.08,245.08,0,0,1,30.65,32.18ZM447.9,336.33a263.07,263.07,0,0,1,2.1-31.59H371.06a22.21,22.21,0,0,0,0,44.41h77.11c-.18-4.22-.27-8.47-.27-12.83Zm544.85-31.59H913.84a257.17,257.17,0,0,1,2.1,31.59c0,4.36-.09,8.6-.24,12.82h77a22.21,22.21,0,0,0,0-44.41Zm-119.64,182a346.29,346.29,0,0,1-27.75,35L886,562.43A22.22,22.22,0,1,0,917.41,531ZM446.4,531a22.22,22.22,0,1,0,31.42,31.42l40.67-40.69a346.07,346.07,0,0,1-27.76-35L446.41,531ZM885.13,336.33a203.69,203.69,0,0,0-130.25-190l.18-1-15.22-4.47a208.07,208.07,0,0,0-36.48-7.1l-1.77-.19h-.06l-.06,0c-6.1-.58-12.45-1-19.07-1h-1c-6.62,0-13,.45-19.07,1l-.09,0-1.83.19a207.45,207.45,0,0,0-36.44,7.1l-14.73,4.3.15,1A203.61,203.61,0,0,0,478.68,336.32c0,33,5.7,60.17,14.58,82.63,13.33,33.7,33.67,56.45,50,73.71,8.17,8.61,15.37,16,20.25,22.24S571,526.1,571.65,530c3.57,18.85,3.94,42.64,3.94,48.68v1.74a49.33,49.33,0,0,0,49.32,49.33h114a49.34,49.34,0,0,0,49.33-49.33v-1.67c0-6,.36-29.84,3.93-48.72a26.89,26.89,0,0,1,3.94-9.27c3.9-6.38,11.28-14.31,20.44-23.86,13.66-14.37,31.05-32.48,44.87-58.24s23.76-59,23.7-102.31Zm-46.58,70c-10.89,27.46-27.24,46.06-43,62.71-7.87,8.33-15.59,16.08-22.33,24.65s-12.59,18.12-14.88,30c-4.31,23.16-4.49,48-4.51,55.09v1.68a14.89,14.89,0,0,1-14.89,14.88h-114A14.83,14.83,0,0,1,610,580.4v-1.74c0-7.16-.25-31.93-4.55-55A61,61,0,0,0,597,502.56c-6.86-10.89-15.64-19.86-24.71-29.47-13.69-14.27-28.18-29.69-39.47-50.73s-19.61-47.79-19.65-86A169.34,169.34,0,0,1,633.83,174.19l4.3-1.31a179.28,179.28,0,0,1,26-4.82h0l1.65-.18c5.22-.5,10.28-.82,15.28-.85l.89.09.88-.06c5,0,10.07.34,15.25.82H698l1.71.19h0a173.36,173.36,0,0,1,25.9,4.82L730,174.2A169.21,169.21,0,0,1,850.69,336.34c0,29.12-4.88,51.6-12.13,70ZM703.33,133.83h0Zm-42.89,0h0Zm78,509.37H625.37a21.21,21.21,0,0,0,0,42.41h113.1a21.21,21.21,0,0,0,0-42.41Zm0,53.51H625.37a21.2,21.2,0,1,0,0,42.4h113.1a21.2,21.2,0,1,0,0-42.4Zm-46.64,53.93H633.58c0,.64-.12,1.25-.12,1.92,0,11.71,18,21.2,34.64,21.2h27.64c16.65,0,34.62-9.49,34.62-21.2,0-.67-.1-1.28-.1-1.92Zm0,0" transform="translate(-348.88 6.08)"/></g><path class="ffa23624-b2cb-4dc9-836e-bfd337cf5ce8" d="M579.94,335.92a102.5,102.5,0,0,1,102.5-102.49" transform="translate(-348.88 6.08)"/></svg>